<svg id="visual" viewBox="0 0 1920 1080" width="1920" height="1080" xmlns="http://www.w3.org/2000/svg" xmlns:xlink="http://www.w3.org/1999/xlink" version="1.1"><g stroke-width="1" stroke-linejoin="bevel"><path d="M1057.7 530L1252 530L1072.7 378Z" fill="#434c60" stroke="#434c60"></path><path d="M1252 530L1239 325L1072.7 378Z" fill="#374054" stroke="#374054"></path><path d="M1057.7 530L1248 700L1252 530Z" fill="#5b6477" stroke="#5b6477"></path><path d="M861.3 714L1038.7 715L1057.7 530Z" fill="#4f586b" stroke="#4f586b"></path><path d="M1057.7 530L1038.7 715L1248 700Z" fill="#747d8f" stroke="#747d8f"></path><path d="M891.3 186L868.3 372L1072.7 378Z" fill="#212a3e" stroke="#212a3e"></path><path d="M1072.7 378L868.3 372L1057.7 530Z" fill="#434c60" stroke="#434c60"></path><path d="M868.3 372L833.3 515L1057.7 530Z" fill="#677083" stroke="#677083"></path><path d="M1239 325L1067.7 146L1072.7 378Z" fill="#747d8f" stroke="#747d8f"></path><path d="M1475.3 202L1320 162L1239 325Z" fill="#212a3e" stroke="#212a3e"></path><path d="M1239 325L1320 162L1067.7 146Z" fill="#374054" stroke="#374054"></path><path d="M1524.3 333L1239 325L1252 530Z" fill="#212a3e" stroke="#212a3e"></path><path d="M1248 700L1516.3 527L1252 530Z" fill="#818a9c" stroke="#818a9c"></path><path d="M1067.7 146L891.3 186L1072.7 378Z" fill="#818a9c" stroke="#818a9c"></path><path d="M868.3 372L657 329L833.3 515Z" fill="#374054" stroke="#374054"></path><path d="M833.3 515L861.3 714L1057.7 530Z" fill="#2c3549" stroke="#2c3549"></path><path d="M1516.3 527L1524.3 333L1252 530Z" fill="#4f586b" stroke="#4f586b"></path><path d="M1524.3 333L1475.3 202L1239 325Z" fill="#677083" stroke="#677083"></path><path d="M1305 919L1515.3 720L1248 700Z" fill="#434c60" stroke="#434c60"></path><path d="M1248 700L1515.3 720L1516.3 527Z" fill="#434c60" stroke="#434c60"></path><path d="M1516.3 527L1702.7 516L1524.3 333Z" fill="#747d8f" stroke="#747d8f"></path><path d="M1101.7 914L1248 700L1038.7 715Z" fill="#434c60" stroke="#434c60"></path><path d="M812.3 882L1101.7 914L1038.7 715Z" fill="#434c60" stroke="#434c60"></path><path d="M1245 0L1089.7 0L1067.7 146Z" fill="#374054" stroke="#374054"></path><path d="M1067.7 146L835.3 0L891.3 186Z" fill="#818a9c" stroke="#818a9c"></path><path d="M1245 0L1067.7 146L1320 162Z" fill="#9ba4b5" stroke="#9ba4b5"></path><path d="M1516.3 0L1245 0L1320 162Z" fill="#818a9c" stroke="#818a9c"></path><path d="M1101.7 914L1305 919L1248 700Z" fill="#8e97a8" stroke="#8e97a8"></path><path d="M673 145L657 329L891.3 186Z" fill="#212a3e" stroke="#212a3e"></path><path d="M891.3 186L657 329L868.3 372Z" fill="#434c60" stroke="#434c60"></path><path d="M833.3 515L626 758L861.3 714Z" fill="#434c60" stroke="#434c60"></path><path d="M626 758L812.3 882L861.3 714Z" fill="#212a3e" stroke="#212a3e"></path><path d="M861.3 714L812.3 882L1038.7 715Z" fill="#8e97a8" stroke="#8e97a8"></path><path d="M1515.3 720L1702.7 516L1516.3 527Z" fill="#747d8f" stroke="#747d8f"></path><path d="M1694.7 0L1516.3 0L1475.3 202Z" fill="#374054" stroke="#374054"></path><path d="M657 329L603 518L833.3 515Z" fill="#4f586b" stroke="#4f586b"></path><path d="M1089.7 0L835.3 0L1067.7 146Z" fill="#5b6477" stroke="#5b6477"></path><path d="M835.3 0L673 145L891.3 186Z" fill="#212a3e" stroke="#212a3e"></path><path d="M657 329L429.7 320L603 518Z" fill="#818a9c" stroke="#818a9c"></path><path d="M1305 919L1533.3 910L1515.3 720Z" fill="#8e97a8" stroke="#8e97a8"></path><path d="M1515.3 720L1745.7 744L1702.7 516Z" fill="#4f586b" stroke="#4f586b"></path><path d="M1739.7 217L1475.3 202L1524.3 333Z" fill="#5b6477" stroke="#5b6477"></path><path d="M1475.3 202L1516.3 0L1320 162Z" fill="#8e97a8" stroke="#8e97a8"></path><path d="M1702.7 516L1736.7 325L1524.3 333Z" fill="#374054" stroke="#374054"></path><path d="M603 518L626 758L833.3 515Z" fill="#374054" stroke="#374054"></path><path d="M877.3 1080L1101.7 914L812.3 882Z" fill="#374054" stroke="#374054"></path><path d="M877.3 1080L1028.7 1080L1101.7 914Z" fill="#2c3549" stroke="#2c3549"></path><path d="M1101.7 914L1303 1080L1305 919Z" fill="#434c60" stroke="#434c60"></path><path d="M1305 919L1471.3 1080L1533.3 910Z" fill="#8e97a8" stroke="#8e97a8"></path><path d="M1736.7 325L1739.7 217L1524.3 333Z" fill="#747d8f" stroke="#747d8f"></path><path d="M1028.7 1080L1303 1080L1101.7 914Z" fill="#818a9c" stroke="#818a9c"></path><path d="M1533.3 910L1745.7 744L1515.3 720Z" fill="#747d8f" stroke="#747d8f"></path><path d="M1702.7 516L1920 395L1736.7 325Z" fill="#212a3e" stroke="#212a3e"></path><path d="M1736.7 325L1920 222L1739.7 217Z" fill="#818a9c" stroke="#818a9c"></path><path d="M634 930L877.3 1080L812.3 882Z" fill="#434c60" stroke="#434c60"></path><path d="M1303 1080L1471.3 1080L1305 919Z" fill="#434c60" stroke="#434c60"></path><path d="M1533.3 910L1707.7 919L1745.7 744Z" fill="#434c60" stroke="#434c60"></path><path d="M835.3 0L636 0L673 145Z" fill="#4f586b" stroke="#4f586b"></path><path d="M409.7 207L429.7 320L657 329Z" fill="#818a9c" stroke="#818a9c"></path><path d="M626 758L634 930L812.3 882Z" fill="#8e97a8" stroke="#8e97a8"></path><path d="M435.7 901L634 930L626 758Z" fill="#374054" stroke="#374054"></path><path d="M1739.7 217L1694.7 0L1475.3 202Z" fill="#677083" stroke="#677083"></path><path d="M1675.7 1080L1707.7 919L1533.3 910Z" fill="#8e97a8" stroke="#8e97a8"></path><path d="M409.7 207L657 329L673 145Z" fill="#2c3549" stroke="#2c3549"></path><path d="M603 518L445.7 755L626 758Z" fill="#9ba4b5" stroke="#9ba4b5"></path><path d="M387.7 525L445.7 755L603 518Z" fill="#747d8f" stroke="#747d8f"></path><path d="M1920 544L1702.7 516L1745.7 744Z" fill="#5b6477" stroke="#5b6477"></path><path d="M1920 544L1920 395L1702.7 516Z" fill="#818a9c" stroke="#818a9c"></path><path d="M1739.7 217L1920 0L1694.7 0Z" fill="#2c3549" stroke="#2c3549"></path><path d="M1920 752L1920 544L1745.7 744Z" fill="#5b6477" stroke="#5b6477"></path><path d="M429.7 320L387.7 525L603 518Z" fill="#4f586b" stroke="#4f586b"></path><path d="M438.7 0L409.7 207L673 145Z" fill="#434c60" stroke="#434c60"></path><path d="M429.7 320L234.3 352L387.7 525Z" fill="#677083" stroke="#677083"></path><path d="M1920 395L1920 222L1736.7 325Z" fill="#2c3549" stroke="#2c3549"></path><path d="M1471.3 1080L1675.7 1080L1533.3 910Z" fill="#747d8f" stroke="#747d8f"></path><path d="M1920 900L1920 752L1745.7 744Z" fill="#434c60" stroke="#434c60"></path><path d="M1920 900L1745.7 744L1707.7 919Z" fill="#2c3549" stroke="#2c3549"></path><path d="M435.7 901L602 1080L634 930Z" fill="#2c3549" stroke="#2c3549"></path><path d="M634 930L602 1080L877.3 1080Z" fill="#374054" stroke="#374054"></path><path d="M178.3 880L435.7 901L445.7 755Z" fill="#374054" stroke="#374054"></path><path d="M445.7 755L435.7 901L626 758Z" fill="#8e97a8" stroke="#8e97a8"></path><path d="M636 0L438.7 0L673 145Z" fill="#747d8f" stroke="#747d8f"></path><path d="M1920 1080L1920 900L1707.7 919Z" fill="#747d8f" stroke="#747d8f"></path><path d="M1920 222L1920 0L1739.7 217Z" fill="#4f586b" stroke="#4f586b"></path><path d="M247.3 172L234.3 352L409.7 207Z" fill="#374054" stroke="#374054"></path><path d="M409.7 207L234.3 352L429.7 320Z" fill="#434c60" stroke="#434c60"></path><path d="M387.7 525L188.3 729L445.7 755Z" fill="#9ba4b5" stroke="#9ba4b5"></path><path d="M234.3 352L217.3 542L387.7 525Z" fill="#2c3549" stroke="#2c3549"></path><path d="M438.7 0L247.3 172L409.7 207Z" fill="#374054" stroke="#374054"></path><path d="M0 554L188.3 729L217.3 542Z" fill="#212a3e" stroke="#212a3e"></path><path d="M435.7 901L406.7 1080L602 1080Z" fill="#2c3549" stroke="#2c3549"></path><path d="M215.3 1080L406.7 1080L435.7 901Z" fill="#818a9c" stroke="#818a9c"></path><path d="M1675.7 1080L1920 1080L1707.7 919Z" fill="#4f586b" stroke="#4f586b"></path><path d="M0 384L217.3 542L234.3 352Z" fill="#8e97a8" stroke="#8e97a8"></path><path d="M217.3 542L188.3 729L387.7 525Z" fill="#2c3549" stroke="#2c3549"></path><path d="M438.7 0L205.3 0L247.3 172Z" fill="#8e97a8" stroke="#8e97a8"></path><path d="M0 164L0 384L234.3 352Z" fill="#677083" stroke="#677083"></path><path d="M0 692L178.3 880L188.3 729Z" fill="#747d8f" stroke="#747d8f"></path><path d="M188.3 729L178.3 880L445.7 755Z" fill="#374054" stroke="#374054"></path><path d="M178.3 880L215.3 1080L435.7 901Z" fill="#374054" stroke="#374054"></path><path d="M0 164L234.3 352L247.3 172Z" fill="#8e97a8" stroke="#8e97a8"></path><path d="M178.3 880L0 931L215.3 1080Z" fill="#677083" stroke="#677083"></path><path d="M0 384L0 554L217.3 542Z" fill="#677083" stroke="#677083"></path><path d="M0 554L0 692L188.3 729Z" fill="#4f586b" stroke="#4f586b"></path><path d="M205.3 0L0 164L247.3 172Z" fill="#8e97a8" stroke="#8e97a8"></path><path d="M205.3 0L0 0L0 164Z" fill="#818a9c" stroke="#818a9c"></path><path d="M0 692L0 931L178.3 880Z" fill="#677083" stroke="#677083"></path><path d="M0 931L0 1080L215.3 1080Z" fill="#374054" stroke="#374054"></path></g></svg>